#!OML:ASF X:\für Bonn\!DataBase\2005_08_10_Bjorn_Final\c3d\bjorn.ASF
:FULLY-SPECIFIED
:DEGREES
121
root 17.8532 18.2493 -22.2305 174.833 -39.2308 -170.961
lowerback 1.67022 7.11239 6.96532
upperback 7.46865 9.07387 -1.56257
thorax 8.36247 4.85756 -4.90872
lowerneck -0.0919468 0.761569 5.87721
upperneck 0.0358131 1.01202 -4.29317
head 0.0822229 0.505201 -2.36396
rclavicle 1.98785e-016 7.95139e-016
rhumerus -42.792 31.3864 -109.387
rradius 94.3887
rwrist 5.24058
rhand -20.6284 27.6385
rfingers 7.12502
rthumb 5.73309 -2.26392
lclavicle 1.98785e-016 7.95139e-016
lhumerus -45.6578 -22.0739 98.5693
lradius 87.7139
lwrist -0.663466
lhand -39.2125 -26.9286
lfingers 7.12502
lthumb -12.2085 2.69507
rfemur 8.88836 -0.085729 4.07104
rtibia 60.6999
rfoot 7.93804 11.6136
rtoes -23.7779
lfemur -30.4473 8.56541 -30.687
ltibia 44.177
lfoot -11.4201 2.87381
ltoes 8.56981
122
root 17.6359 18.146 -22.407 174.402 -40.0954 -171.092
lowerback 1.98257 6.8718 6.98014
upperback 7.74436 8.74549 -1.73623
thorax 8.47206 4.7052 -5.15403
lowerneck -0.202949 0.846934 5.93103
upperneck -0.516293 1.10939 -4.17374
head -0.0670404 0.548891 -2.33491
rclavicle -3.06128e-014 1.98785e-014
rhumerus -43.377 30.0121 -109.191
rradius 92.9585
rwrist 5.191
rhand -20.8196 27.299
rfingers 7.12502
rthumb 5.54854 -2.60839
lclavicle -3.06128e-014 1.98785e-014
lhumerus -44.078 -21.9518 98.3211
lradius 87.8989
lwrist -0.839274
lhand -39.2186 -27.2559
lfingers 7.12502
lthumb -12.2145 2.36749
rfemur 7.80997 -0.443681 3.10521
rtibia 64.0138
rfoot 7.54583 12.5895
rtoes -24.5544
lfemur -29.5992 7.40385 -31.0125
ltibia 45.6198
lfoot -12.779 3.19274
ltoes 9.04634
123
root 17.4212 18.0417 -22.5822 174.007 -41.1246 -171.229
lowerback 2.21526 6.58063 6.98797
upperback 8.07522 8.34092 -1.94415
thorax 8.68038 4.51881 -5.42633
lowerneck -0.410425 0.977709 5.96379
upperneck -1.10411 1.26136 -3.91756
head -0.208988 0.61691 -2.25674
rclavicle 4.96962e-014 -3.89618e-014
rhumerus -43.7372 28.4388 -108.924
rradius 91.2328
rwrist 5.28549
rhand -21.4036 27.4362
rfingers 7.12502
rthumb 4.98463 -2.48521
lclavicle 4.96962e-014 -3.89618e-014
lhumerus -42.5797 -21.9546 97.9968
lradius 88.3682
lwrist -0.903105
lhand -39.3643 -28.0371
lfingers 7.12502
lthumb -12.3549 1.57788
rfemur 6.72425 -0.876486 2.14574
rtibia 67.2361
rfoot 7.14272 13.5721
rtoes -25.1252
lfemur -28.727 6.15874 -31.4043
ltibia 46.9903
lfoot -14.1362 3.42968
ltoes 9.86706
124
root 17.2071 17.941 -22.7578 173.672 -42.2429 -171.443
lowerback 2.4333 6.25395 6.87159
upperback 8.40211 7.8886 -2.12804
thorax 8.85687 4.29785 -5.60959
lowerneck -0.770393 1.15534 5.85738
upperneck -1.40763 1.47343 -3.56312
head -0.234546 0.715377 -2.11861
rclavicle -1.90833e-014 3.73715e-014
rhumerus -44.1533 26.7721 -108.433
rradius 89.4376
rwrist 5.43562
rhand -22.0769 27.7149
rfingers 7.12502
rthumb 4.33452 -2.2207
lclavicle -1.90833e-014 3.73715e-014
lhumerus -40.8572 -22.032 97.6939
lradius 88.6475
lwrist -0.999169
lhand -39.4929 -28.4842
lfingers 7.12502
lthumb -12.4789 1.12323
rfemur 5.64224 -1.31074 1.15057
rtibia 70.3446
rfoot 6.84213 14.2634
rtoes -24.9361
lfemur -27.7468 4.97676 -31.8766
ltibia 48.2679
lfoot -15.6706 3.47596
ltoes 11.8383
125
root 16.9956 17.8397 -22.9249 173.424 -43.2867 -171.674
lowerback 2.60964 5.94861 6.80821
upperback 8.72398 7.46268 -2.33834
thorax 9.06942 4.09605 -5.84331
lowerneck -1.26748 1.34411 5.71535
upperneck -1.55618 1.69563 -3.14525
head -0.18991 0.819216 -1.95167
rclavicle 1.37559e-013 -5.24792e-014
rhumerus -44.3799 24.9026 -107.858
rradius 87.335
rwrist 5.56549
rhand -22.4916 27.9227
rfingers 7.12502
rthumb 3.93409 -2.02075
lclavicle 1.37559e-013 -5.24792e-014
lhumerus -39.3119 -22.3284 97.2968
lradius 89.2664
lwrist -0.832839
lhand -39.5279 -28.6551
lfingers 7.12502
lthumb -12.5126 0.950235
rfemur 4.38626 -1.67635 0.156089
rtibia 73.3458
rfoot 6.56962 14.6892
rtoes -23.0972
lfemur -26.7798 4.02437 -32.3563
ltibia 49.4187
lfoot -17.2057 3.17793
ltoes 14.3618
126
root 16.7858 17.7383 -23.0865 173.419 -44.2163 -172.139
lowerback 2.73952 5.68062 6.60998
upperback 9.04171 7.08926 -2.60142
thorax 9.29922 3.9122 -6.05173
lowerneck -1.80778 1.5574 5.48874
upperneck -1.64222 1.9505 -2.6617
head -0.120606 0.940562 -1.74784
rclavicle -1.19271e-015 -4.92986e-014
rhumerus -44.5724 22.9822 -107.112
rradius 85.2287
rwrist 5.57873
rhand -22.6267 27.8708
rfingers 7.12502
rthumb 3.80364 -2.07495
lclavicle -1.19271e-015 -4.92986e-014
lhumerus -37.5716 -22.6079 96.9656
lradius 89.7593
lwrist -0.677458
lhand -39.6387 -28.5023
lfingers 7.12502
lthumb -12.6194 1.09648
rfemur 2.94294 -1.96779 -1.04613
rtibia 76.2348
rfoot 6.35368 14.9508
rtoes -20.2276
lfemur -25.8168 3.27602 -33.02
ltibia 50.4088
lfoot -18.691 2.67564
ltoes 16.7609
127
root 16.574 17.6513 -23.2505 173.568 -45.1749 -172.739
lowerback 2.81957 5.41968 6.25244
upperback 9.34208 6.72847 -2.87892
thorax 9.51812 3.72133 -6.184
lowerneck -2.22665 1.75423 5.29952
upperneck -1.77757 2.18983 -2.23168
head -0.0893649 1.05477 -1.5703
rclavicle -4.57205e-014 -1.74931e-014
rhumerus -44.7468 21.1055 -106.246
rradius 83.1357
rwrist 5.40633
rhand -22.6284 27.5179
rfingers 7.12502
rthumb 3.80191 -2.42789
lclavicle -4.57205e-014 -1.74931e-014
lhumerus -35.7815 -23.031 96.4529
lradius 90.2646
lwrist -0.424937
lhand -39.803 -28.0369
lfingers 7.12502
lthumb -12.7778 1.55205
rfemur 1.40797 -2.3296 -2.28235
rtibia 78.9462
rfoot 5.93314 15.1235
rtoes -18.0244
lfemur -24.7774 2.70992 -33.7947
ltibia 51.1794
lfoot -20.0399 2.16969
ltoes 17.9124
128
root 16.3654 17.5749 -23.416 173.653 -46.1117 -173.14
lowerback 2.84777 5.15296 5.96188
upperback 9.61295 6.35706 -3.08662
thorax 9.73339 3.52683 -6.27602
lowerneck -2.59088 1.94507 5.10993
upperneck -1.89241 2.42538 -1.89262
head -0.0618591 1.16835 -1.42298
rclavicle 1.63003e-014 -5.56597e-014
rhumerus -45.0741 19.256 -105.369
rradius 81.1683
rwrist 5.5786
rhand -22.7338 27.0356
rfingers 7.12502
rthumb 3.7002 -2.91204
lclavicle 1.63003e-014 -5.56597e-014
lhumerus -34.0976 -23.2714 96.1332
lradius 90.7081
lwrist -0.628868
lhand -40.0963 -27.361
lfingers 7.12502
lthumb -13.0606 2.21011
rfemur -0.295121 -2.74486 -3.20122
rtibia 81.5108
rfoot 5.25144 15.1347
rtoes -17.0397
lfemur -23.7174 2.23284 -34.4008
ltibia 51.7417
lfoot -21.2266 1.80618
ltoes 17.9457
129
root 16.1549 17.5187 -23.578 173.601 -47.0404 -173.242
lowerback 2.85932 4.88198 5.85757
upperback 9.84305 5.97762 -3.22226
thorax 9.92858 3.34093 -6.39473
lowerneck -3.00908 2.12181 4.93069
upperneck -1.92582 2.64016 -1.5963
head -0.00177462 1.27291 -1.29068
rclavicle -5.76476e-014 1.74931e-014
rhumerus -45.1716 17.415 -104.367
rradius 79.0304
rwrist 6.07396
rhand -23.1518 27.0851
rfingers 7.12502
rthumb 3.29654 -2.86912
lclavicle -5.76476e-014 1.74931e-014
lhumerus -32.269 -23.6396 95.7539
lradius 91.0039
lwrist -0.659341
lhand -40.4728 -26.7387
lfingers 7.12502
lthumb -13.4235 2.80882
rfemur -2.16386 -3.19942 -3.70631
rtibia 83.8833
rfoot 4.35226 14.9145
rtoes -17.2302
lfemur -22.6158 1.78353 -34.7689
ltibia 52.0797
lfoot -22.2949 1.65619
ltoes 17.2876
130
root 15.944 17.4782 -23.7391 173.562 -47.9414 -173.254
lowerback 2.88014 4.60229 5.72153
upperback 9.99611 5.59361 -3.3011
thorax 10.0165 3.14523 -6.43659
lowerneck -3.41309 2.28272 4.81599
upperneck -1.85047 2.8347 -1.47301
head 0.0913895 1.36955 -1.22431
rclavicle 6.75868e-015 -5.24792e-014
rhumerus -45.4396 15.7268 -103.292
rradius 77.1657
rwrist 6.58525
rhand -23.7547 27.7913
rfingers 7.12502
rthumb 2.7143 -2.17116
lclavicle 6.75868e-015 -5.24792e-014
lhumerus -30.5284 -24.0807 95.4177
lradius 91.3099
lwrist -0.681668
lhand -40.9365 -26.0004
lfingers 7.12502
lthumb -13.8704 3.51702
rfemur -4.19807 -3.66074 -3.97584
rtibia 86.0694
rfoot 3.24922 14.5093
rtoes -18.8556
lfemur -21.5011 1.40196 -35.0501
ltibia 52.2216
lfoot -23.2078 1.6151
ltoes 16.1747
131
root 15.7323 17.4526 -23.8974 173.53 -48.8502 -173.2
lowerback 2.91594 4.31905 5.59307
upperback 10.0835 5.21142 -3.34369
thorax 10.0172 2.94789 -6.444
lowerneck -3.75205 2.43898 4.74074
upperneck -1.74573 3.02673 -1.44408
head 0.184553 1.46581 -1.19489
rclavicle -5.52621e-014 5.56597e-014
rhumerus -45.7176 14.1169 -102.201
rradius 75.4345
rwrist 7.0106
rhand -23.9007 27.954
rfingers 7.12502
rthumb 2.57326 -2.01021
lclavicle -5.52621e-014 5.56597e-014
lhumerus -28.8089 -24.6676 95.1086
lradius 91.5503
lwrist -0.677443
lhand -41.5194 -25.5363
lfingers 7.12502
lthumb -14.4321 3.94193
rfemur -6.33557 -4.10612 -4.03053
rtibia 88.0301
rfoot 2.11689 13.988
rtoes -21.1335
lfemur -20.3493 1.0097 -35.2661
ltibia 52.1701
lfoot -23.9605 1.68965
ltoes 14.8582
132
root 15.5205 17.4357 -24.054 173.569 -49.7223 -173.148
lowerback 2.92441 4.0481 5.43194
upperback 10.1156 4.85179 -3.36576
thorax 9.96882 2.75737 -6.40626
lowerneck -4.07211 2.56685 4.67885
upperneck -1.57461 3.18334 -1.48324
head 0.295548 1.54547 -1.18939
rclavicle 6.75868e-015 -2.38542e-014
rhumerus -46.1816 12.5328 -101.14
rradius 74.0725
rwrist 7.52214
rhand -23.5885 27.7247
rfingers 7.12502
rthumb 2.87477 -2.23569
lclavicle 6.75868e-015 -2.38542e-014
lhumerus -27.274 -25.2798 94.833
lradius 91.9054
lwrist -0.772769
lhand -42.0969 -25.4074
lfingers 7.12502
lthumb -14.9885 4.03012
rfemur -8.58882 -4.47326 -3.90494
rtibia 89.7365
rfoot 1.03621 13.4645
rtoes -22.7657
lfemur -19.1778 0.689574 -35.4487
ltibia 51.9354
lfoot -24.5978 1.59361
ltoes 14.1224
